<?xml version="1.0" standalone="no"?>
<!DOCTYPE svg PUBLIC "-//W3C//DTD SVG 20010904//EN"
 "http://www.w3.org/TR/2001/REC-SVG-20010904/DTD/svg10.dtd">
<svg version="1.0" xmlns="http://www.w3.org/2000/svg"
 width="700.000000pt" height="700.000000pt" viewBox="0 0 700.000000 700.000000"
 preserveAspectRatio="xMidYMid meet">
<metadata>
Created by potrace 1.11, written by Peter Selinger 2001-2013
</metadata>
<g transform="translate(0.000000,700.000000) scale(0.100000,-0.100000)"
fill="#000000" stroke="none">
<path d="M3278 6995 c-1 -1 -41 -5 -88 -9 -47 -4 -101 -9 -120 -12 -35 -4
-152 -22 -200 -30 -82 -12 -285 -63 -420 -104 -230 -70 -683 -276 -761 -346
-8 -8 -19 -14 -23 -14 -10 0 -143 -90 -251 -170 -383 -284 -715 -657 -955
-1075 -48 -83 -170 -328 -170 -340 0 -3 -9 -24 -20 -48 -48 -103 -146 -398
-165 -495 -2 -13 -7 -32 -10 -42 -3 -10 -8 -29 -10 -42 -3 -13 -11 -57 -20
-98 -22 -115 -30 -160 -41 -255 -26 -231 -26 -674 1 -826 2 -13 7 -46 10 -74
23 -217 101 -519 201 -777 184 -474 453 -881 824 -1246 124 -123 160 -151 160
-128 0 9 9 35 19 59 37 79 94 222 106 267 15 51 19 82 40 301 11 112 8 107
115 190 55 42 77 67 100 114 17 33 33 78 37 100 l6 40 -63 -63 c-45 -45 -65
-59 -71 -50 -8 13 -42 -11 -83 -61 -18 -22 -20 -22 -32 -7 -11 15 -17 11 -55
-39 l-44 -55 -14 30 c-8 16 -19 30 -24 30 -5 0 -29 -17 -54 -37 l-46 -38 7 38
7 38 -53 -35 c-59 -40 -75 -44 -75 -18 0 40 -2 42 -29 32 -15 -6 -39 -19 -54
-30 -34 -24 -41 -25 -33 -4 5 12 1 15 -13 11 -10 -3 -29 -8 -41 -12 -18 -5
-25 -1 -35 19 -8 19 -19 26 -40 26 -26 0 -28 2 -18 20 6 11 9 20 8 21 -2 0
-21 2 -43 4 -22 2 -49 6 -60 9 -11 2 -24 5 -29 5 -5 1 -3 8 4 16 15 19 15 19
-34 39 -36 15 -38 18 -22 29 16 12 16 14 -8 25 -17 8 -26 19 -26 35 0 13 -13
44 -30 68 -16 24 -30 52 -30 61 0 15 3 16 33 3 17 -7 47 -15 65 -18 30 -5 33
-3 29 14 -3 11 -2 19 1 17 112 -60 160 -68 255 -43 32 8 79 17 104 20 87 9
236 69 257 104 4 6 -3 15 -14 21 -11 6 -20 15 -20 20 0 5 27 23 60 41 55 29
66 41 112 118 109 185 216 345 266 402 43 48 117 89 297 165 78 33 101 49 175
121 56 54 100 87 128 97 23 8 42 13 42 11 0 -3 10 -1 23 4 13 5 39 12 58 15
179 29 293 56 332 79 46 27 104 87 160 165 27 37 52 57 155 119 22 13 22 16 7
27 -13 9 -14 13 -4 13 65 1 154 15 178 28 17 8 36 15 44 15 12 0 67 86 67 105
0 3 -10 3 -22 -1 l-23 -7 20 23 c11 13 48 36 81 51 34 15 64 35 67 44 4 8 18
20 32 27 14 6 25 17 25 24 0 7 12 15 28 19 43 9 122 73 138 110 8 19 14 48 14
64 0 29 -1 29 -54 28 -30 -1 -58 1 -61 5 -14 14 30 72 128 170 95 95 108 112
156 213 55 114 69 131 161 195 74 50 125 108 157 178 61 131 133 225 163 214
57 -22 120 -110 120 -169 0 -25 4 -28 32 -28 25 0 37 -7 55 -34 26 -38 24 -60
-14 -132 -22 -42 -23 -53 -19 -180 4 -128 3 -138 -25 -221 -37 -106 -40 -160
-10 -192 25 -26 27 -42 6 -50 -24 -9 -18 -35 20 -86 30 -40 65 -108 65 -124 0
-2 -9 -2 -20 1 -18 5 -20 0 -20 -44 0 -27 -6 -55 -12 -62 -7 -6 -13 -15 -14
-19 0 -4 -4 -15 -9 -25 -9 -22 9 -90 31 -111 19 -19 10 -36 -15 -29 -16 4 -18
0 -15 -25 2 -16 10 -48 18 -71 12 -38 12 -41 -3 -39 -19 4 -17 -32 5 -74 14
-26 13 -28 -6 -28 -31 0 -34 -1 -48 -12 -7 -6 -12 -21 -11 -32 0 -12 1 -58 0
-104 -1 -91 2 -87 -60 -64 -14 5 -13 -9 4 -50 5 -13 2 -18 -11 -18 -11 0 -26
-4 -34 -10 -12 -7 -12 -12 4 -29 16 -17 18 -31 13 -88 -6 -66 -25 -133 -38
-133 -3 0 -11 12 -18 27 -10 22 -14 24 -22 12 -5 -7 -9 -32 -10 -54 0 -36 -1
-38 -11 -17 -16 33 -25 27 -33 -20 l-7 -42 -19 37 c-11 20 -24 37 -28 37 -5 0
-13 -24 -18 -52 -7 -45 -12 -54 -31 -56 -22 -3 -23 -4 -7 -29 21 -31 15 -37
-19 -22 -16 8 -30 9 -35 3 -7 -7 -14 -90 -21 -237 0 -4 -9 -2 -20 5 -31 20
-47 -6 -64 -105 -15 -94 -22 -110 -35 -88 -13 21 -28 5 -45 -47 -22 -66 -31
-147 -30 -292 0 -135 6 -186 31 -268 16 -52 16 -52 52 -48 23 2 42 -2 54 -12
20 -18 42 -12 154 39 60 27 303 107 578 190 138 42 149 45 235 59 75 12 121
20 145 24 107 21 241 38 291 39 55 0 68 -4 120 -39 67 -45 106 -96 96 -124 -4
-11 -36 -52 -72 -91 -117 -130 -127 -148 -124 -226 3 -105 -12 -127 -163 -242
-88 -66 -120 -115 -153 -228 -16 -54 -57 -179 -91 -278 -34 -99 -63 -197 -65
-218 -12 -117 -12 -116 5 -110 32 12 304 154 331 173 16 11 31 20 34 20 4 0
59 35 124 79 365 244 656 524 911 876 97 134 102 142 199 310 170 294 315 669
378 970 14 65 54 298 59 340 31 263 26 708 -10 920 -2 17 -7 48 -10 70 -18
121 -79 375 -125 515 -191 578 -512 1077 -961 1495 -348 324 -807 596 -1248
741 -195 64 -426 121 -561 139 -19 3 -46 7 -60 10 -13 2 -52 7 -86 11 -33 3
-74 8 -90 10 -32 5 -540 14 -546 9z"/>
<path d="M3580 2238 c-11 -24 -20 -51 -20 -60 0 -30 -16 -28 -35 4 l-18 31
-23 -26 -23 -27 -14 27 c-13 24 -15 25 -20 7 -6 -20 -12 -94 -22 -294 -4 -63
-8 -137 -10 -165 -16 -226 -9 -262 64 -328 45 -41 57 -44 86 -23 11 7 49 24
85 36 36 13 66 24 68 26 2 1 -8 19 -23 39 -23 35 -25 47 -26 149 -1 203 -8
281 -37 411 -3 17 -6 76 -5 133 1 56 -1 102 -3 102 -3 0 -14 -19 -24 -42z"/>
<path d="M2825 2179 c-59 -52 -85 -109 -116 -251 -49 -224 -54 -236 -124 -320
-37 -43 -106 -107 -161 -149 -110 -82 -169 -140 -182 -179 -5 -14 -9 -64 -8
-111 1 -113 15 -134 91 -144 48 -6 59 -11 74 -36 10 -16 20 -27 22 -25 2 3 52
12 111 20 106 16 167 40 250 98 37 25 173 88 192 88 14 0 229 104 253 122 9 7
0 33 -34 101 -36 72 -45 101 -44 137 3 91 1 456 -3 490 -2 19 -4 65 -5 103 -1
49 -5 67 -14 67 -20 0 -79 -30 -104 -53 -20 -18 -23 -18 -23 -4 0 22 -2 21
-52 -4 l-41 -21 6 24 c6 22 4 24 -28 20 -38 -5 -43 1 -20 24 8 9 15 20 15 25
0 17 -19 9 -55 -22z"/>
<path d="M2040 1665 c-14 -8 -32 -17 -40 -21 -47 -22 -271 -177 -293 -203 -14
-17 -35 -61 -47 -98 -12 -37 -52 -131 -89 -208 -103 -213 -107 -225 -92 -298
18 -85 34 -113 71 -121 37 -7 142 27 227 75 117 65 145 77 199 84 30 3 52 10
49 14 -2 5 -7 59 -10 122 -6 112 -15 166 -37 222 -10 26 -12 27 -29 11 -18
-16 -18 -15 -8 17 22 68 22 82 5 94 -14 11 -8 16 44 35 32 12 64 28 70 35 13
15 20 71 22 153 1 112 1 112 -42 87z"/>
</g>
</svg>
