<?xml version="1.0" encoding="UTF-8"?> <svg xmlns="http://www.w3.org/2000/svg" viewBox="0 0 421.773 421.668"><g transform="matrix(1.33333 0 0 -1.33333 -128.174 570.35)"><g transform="translate(-.51 .801)"><path fill="#fff" d="M190.307 176.123c.272 1.178.86 9.784.18 10.463-.678.68-15.762-9.332-16.94-10.826-1.177-1.494-3.261-8.696-3.76-9.512-.497-.815-7.156-13.77-6.793-15.581 1.002-5.015 1.494-6.976 2.853-7.384.467-.14 1.2-.296 1.966-.494 3.12.83 5.972 1.808 7.935 2.935 7.338 4.213 7.474 4.213 8.833 4.213.3 0 1.685.27 3.703.694-.271.943-.514 2.18-.514 3.16 0 1.586-.045 10.872-2.264 13.726l-1.676-1.495s1.812 4.756 1.404 5.526c-.408.77-1.721.86-1.721.86s4.257 1.54 5.027 1.813c.77.27 1.495.724 1.767 1.902M226.68 210.412c-.045 1.268-5.39-3.261-6.387-7.111-.996-3.851-2.944-14.948-4.303-16.805-1.36-1.857-4.575-6.296-9.557-9.74-4.983-3.441-8.063-6.295-8.561-8.333-.498-2.04-.68-8.29.453-10.101 1.132-1.812 5.299-.906 6.296-2.084.425-.502.783-1.228 1.005-1.975 3.709.723 6.789 1.245 8.036 1.245 4.076 0 11.55 6.93 16.442 7.746 3.494.582 8.167 4.074 13.028 6-1.2 2.029-4.187 8.257-4.358 8.998-.204.883.272 6.59.544 8.765.27 2.174-.952 22.965-.952 22.965s-5.17-1.671-6.121-3.845c0 0-.356.878-.04 1.829l-4.2-1.891.668 2.253s-1.348-.724-3.386-.351c0 0 1.438 1.167 1.393 2.435"></path><path fill="#fff" d="M254.805 426.96c-87.352 0-158.165-70.812-158.165-158.164 0-47.932 21.325-90.88 55.001-119.886a2.892 2.892 0 00-.017.443c.091 1.495 5.3 12.116 6.07 15.717 1.381 6.455 1.354 16.076 2.26 17.616.906 1.54 6.165 4.85 7.795 6.799 1.631 1.948 3.443 7.564 3.171 8.153-.272.589-4.937-4.53-5.526-5.073-.589-.543-.498 1.178-1.132.86-.635-.316-4.439-4.348-4.439-4.348s-.046 2.039-.589 1.676c-.544-.362-4.122-5.163-4.122-5.163s-.86 2.989-1.45 2.989c-.589 0-4.892-3.624-4.892-3.624s.997 3.216.68 3.398c-.317.18-3.76-2.99-5.708-3.352 0 0 .408 1.72 0 2.672-.407.95-5.66-2.808-5.66-2.808l.633 1.676-3.624-.861-1.087 2.22-2.582.136s.725.86.861 1.993c0 0-3.669-.59-6.297.95 0 0 .997.635 1.405 1.178 0 0-3.669 1.178-4.077 1.722 0 0 1.45.815 1.45 1.313 0 0-2.039.408-2.628 1.404 0 0 .453.816 0 2.084-.453 1.268-2.989 3.126-2.49 5.209 0 0 3.125-1.902 5.797-1.766l.045 1.63s3.352-2.174 6.206-2.763c2.853-.59 7.474 1.857 9.603 1.63 2.128-.226 11.37 2.492 12.365 5.3 0 0-1.63.227-2.038 1.767 0 0 5.028 1.812 6.251 3.76 1.223 1.947 11.37 20.202 15.718 23.1 4.348 2.899 14.313 6.342 16.034 7.61 1.722 1.269 4.983 5.3 6.976 6.885 1.993 1.586 17.79 3.816 19.704 4.349 4.801 1.336 7.708 5.387 10.554 9.42 2.061 2.923 7.473 4.712 7.61 5.256.135.543-1.994 1.087-1.994 1.087s3.307.498 5.481.588c2.174.09 2.99.363 3.805.952s2.13.498 2.491.815c.363.317 2.537 4.439 2.401 4.666-.136.226-1.902-.227-2.084-.68 0 0 1.087 1.812 1.812 2.265.725.453 6.16 2.582 5.934 2.899-.227.317-.498.679-.498.679s3.216 1.45 3.216 1.812c0 .363-.363.68-.363.68s2.99.679 4.077 1.63c1.087.95 2.627 1.812 3.261 2.763.634.952.317 1.722.725 2.446.408.725.136 2.945.136 2.945s-4.167-.906-5.164-.046c-.996.86 3.533 5.708 6.07 7.927 2.536 2.22 3.125 2.808 3.352 3.035.226.226 3.306 5.209 4.44 8.56 1.131 3.353 5.072 5.889 6.114 6.433 1.041.543 5.662 3.94 7.111 7.745 1.45 3.805 5.617 10.056 6.704 10.328 1.087.272 5.164-3.126 5.753-5.028.588-1.902.498-4.484.498-4.484s.906.906 1.54.815c.634-.091 2.265-.815 3.08-2.99.815-2.174-2.174-6.024-2.31-7.111-.136-1.087.458-12.23.07-13.317-.387-1.087-2.199-4.756-2.38-6.387-.18-1.63-.272-3.352 0-3.67.272-.316 2.294-3.124 2.294-3.124s-1.977-.181-2.022-1.223c-.046-1.042 2.083-3.624 2.763-4.258.68-.634 2.22-4.983 2.22-4.983s-1.903 1.45-2.175.725c-.272-.725.453-3.125.136-3.714-.317-.59-1.767-2.854-1.903-3.986-.135-1.132 1.36-4.303 2.673-5.436 0 0-1.54-.226-2.537.182 0 0 .272-4.032 1.676-6.161 0 0-1.223-.181-1.857 0 0 0 1.178-3.714 1.721-4.756 0 0-1.947-.271-2.853-.226-.906.045-.272-9.014-.86-10.328 0 0-2.13 1.133-2.719 1.042-.588-.09.816-3.171.816-3.171s-3.08-.045-2.945-.724c.136-.68 1.36-1.495 1.36-1.495s.271-2.673-.046-5.028c-.317-2.355-1.676-4.847-1.676-4.847s-1.223 2.809-1.812 2.492c-.589-.317-.317-5.436-.317-5.436s-.86 2.899-1.313 3.126c-.453.226-1.405-4.032-1.405-4.032s-1.404 3.896-1.993 3.579c-.589-.317-1.04-5.21-1.04-5.21s-2.04.544-1.949 0c.09-.543 1.63-2.898 1.63-2.898s-3.35 1.404-3.714 1.087c-.362-.317-.045-9.286-.996-11.188 0 0-1.404 1.54-2.356.453-.95-1.087-1.04-7.61-2.355-9.875 0 0 .045 1.63-.86 1.676-.907.045-2.13-3.76-2.4-5.798-.273-2.038-.953-9.512-.68-13.407.271-3.896 1.313-9.694 2.717-11.324 0 0 1.812 1.223 3.578 0 .415-.288.712-.58.93-.864 4.642 1.472 7.307 3.36 12.233 4.844 7.52 2.265 26.181 8.516 29.261 8.697 3.08.182 20.383 4.168 23.916 2.809 3.533-1.36 8.154-5.436 6.795-7.61-1.359-2.174-8.425-8.97-8.697-10.6-.272-1.63 0-5.903 0-5.903s.272-3.201-5.57-6.802c-5.845-3.601-8.29-8.561-8.29-9.988 0-1.426-6.116-19.432-7.203-21.742-.552-1.174-.37-4.454-.805-7.735 55.298 24.644 93.85 80.083 93.85 144.532 0 87.352-70.813 158.165-158.165 158.165"></path><path fill="#fff" d="M259.882 213.718c-.136.544-1.778-1.189-2.73-6.217 0 0-1.256 2.203-2.026 2.91-.264.243-1.21-.755-1.982-2.196 0 0-.826.747-.962 2.196-.136 1.45-.861-.77-1.042-2.4-.181-1.63-1.223-23.713-1.495-26.906-.272-3.193.95-4.145 1.903-5.436.95-1.29 1.834-2.242 3.26-2.785.285-.108.606-.199.932-.293 1.947 1.115 4.21 2.43 8.317 3.271-.99 1.164-2.388 3.375-2.454 4.065-.09.951-.136 11.505-.226 14.042-.091 2.537-1.767 10.373-1.948 12.366-.181 1.993.589 6.84.453 7.383"></path></g></g></svg> 